<?xml version="1.0" standalone="no"?>
<!DOCTYPE svg PUBLIC "-//W3C//DTD SVG 20010904//EN"
 "http://www.w3.org/TR/2001/REC-SVG-20010904/DTD/svg10.dtd">
<svg version="1.0" xmlns="http://www.w3.org/2000/svg"
 width="1080.000000pt" height="1080.000000pt" viewBox="0 0 1080.000000 1080.000000"
 preserveAspectRatio="xMidYMid meet">
<metadata>
Created by potrace 1.14, written by Peter Selinger 2001-2017
</metadata>
<g transform="translate(0.000000,1080.000000) scale(0.100000,-0.100000)"
fill="#000000" stroke="none">
<path d="M0 5400 l0 -5400 5400 0 5400 0 0 5400 0 5400 -5400 0 -5400 0 0
-5400z m2646 3390 c250 -64 496 -331 575 -625 32 -116 32 -346 0 -500 -57
-281 -202 -617 -410 -951 -120 -192 -340 -494 -360 -494 -14 0 -196 246 -293
395 -246 377 -400 713 -470 1027 -31 139 -33 415 -4 523 63 239 254 478 464
584 123 62 344 80 498 41z m66 -2617 c146 -51 267 -152 343 -287 40 -72 75
-196 75 -268 0 -26 3 -48 8 -48 4 0 48 7 97 16 50 9 472 80 938 158 l848 143
1417 -1459 1416 -1458 43 50 c85 96 242 177 379 196 l52 6 -92 122 c-340 449
-582 933 -657 1317 -32 159 -32 358 -1 484 58 234 241 474 444 580 194 102
463 102 660 -2 178 -93 368 -334 429 -545 27 -95 37 -312 19 -441 -53 -390
-316 -931 -685 -1413 l-76 -98 87 -17 c170 -35 311 -127 402 -262 70 -106 93
-178 99 -312 9 -189 -45 -332 -172 -461 -130 -132 -284 -191 -470 -181 -156 8
-275 59 -389 166 -124 117 -188 262 -190 431 l-1 95 -1389 1430 c-764 786
-1396 1438 -1406 1448 -17 18 -49 13 -960 -140 l-942 -158 -46 -58 c-115 -147
-284 -227 -477 -227 -174 0 -312 57 -435 180 -234 233 -241 607 -17 847 172
184 416 246 649 166z"/>
<path d="M2365 8457 c-105 -28 -180 -88 -227 -185 -94 -191 1 -415 207 -483
22 -7 74 -13 115 -13 306 1 459 374 242 587 -88 86 -222 123 -337 94z"/>
<path d="M2393 5899 c-28 -11 -74 -41 -102 -67 -171 -161 -126 -441 87 -540
81 -38 193 -38 272 -1 170 80 243 286 160 450 -33 64 -111 134 -175 158 -72
27 -171 27 -242 0z"/>
<path d="M8265 5446 c-222 -57 -333 -294 -232 -492 71 -138 241 -218 388 -184
112 26 196 92 249 196 21 42 25 63 25 139 0 77 -4 98 -27 148 -35 75 -112 150
-182 176 -71 26 -159 33 -221 17z"/>
<path d="M8299 2929 c-158 -25 -270 -149 -277 -309 -7 -139 59 -250 184 -311
126 -62 275 -38 374 61 125 125 129 338 9 459 -82 82 -183 117 -290 100z"/>
</g>
</svg>
